<?xml version="1.0" encoding="UTF-8"?>
<svg width="105px" height="105px" viewBox="0 0 105 105" version="1.1" xmlns="http://www.w3.org/2000/svg" xmlns:xlink="http://www.w3.org/1999/xlink">
    <!-- Generator: Sketch 56.2 (81672) - https://sketch.com -->
    <title>logo_rr</title>
    <desc>Created with Sketch.</desc>
    <g id="logo_rr" stroke="none" stroke-width="1" fill="none" fill-rule="evenodd">
        <path d="M6.09257814,63.9601354 L6,63.9599038 L6.14195975,63.5249939 C6.06558689,63.2018311 5.99168753,62.878273 5.92287472,62.5548794 L1.19347615,60.4103725 C0.713083378,60.1932299 0.37970137,59.7427719 0.314392511,59.220533 C0.245575154,58.6973614 0.454577443,58.1763597 0.862916582,57.8449029 L4.88427716,54.5783518 C4.86465758,54.1415329 4.85264914,53.7048078 4.84510463,53.2692256 L0.634018688,50.2488216 C0.20712833,49.9415542 -0.0330499993,49.4344645 0.00368090573,48.9097357 C0.0381703627,48.3846893 0.345061285,47.9140352 0.810842446,47.6682681 L5.39402232,45.2468248 C5.46058877,44.8170836 5.53693684,44.3883064 5.61273691,43.9607735 L2.06930077,40.1728694 C1.70865176,39.7881542 1.57233756,39.2458037 1.71017185,38.7379535 C1.84878142,38.228856 2.23916012,37.8276843 2.74463697,37.6778344 L7.7266754,36.192903 C7.87409134,35.7890192 8.02424247,35.3878112 8.18468596,34.9880226 L5.44275778,30.5721501 C5.16460394,30.1236286 5.13571143,29.5661043 5.37295926,29.094875 C5.60730215,28.621438 6.06584527,28.305966 6.5903549,28.2568717 L11.7675445,27.7739175 C11.9907226,27.4060718 12.2167292,27.0402637 12.451681,26.6790594 L10.6232897,21.8141019 C10.4362851,21.3243111 10.5201342,20.7680748 10.8433496,20.3506678 C11.1652716,19.9326488 11.6797227,19.711999 12.2045137,19.7678226 L17.3624973,20.3025103 C17.6567019,19.9818499 17.9524486,19.6644252 18.2568427,19.3520023 L17.4147293,14.2361736 C17.3278095,13.7159119 17.5179917,13.1889 17.9161237,12.8428492 C18.3123396,12.4974221 18.8595893,12.3798318 19.3639699,12.535858 L24.3152693,14.0658256 C24.667201,13.8095648 25.0224373,13.5552425 25.3820176,13.3059448 L25.5541322,8.1265823 C25.5721194,7.59967447 25.8599689,7.11862657 26.3187214,6.85824683 C26.7752409,6.59438899 27.3351276,6.58949455 27.7984377,6.84102722 L32.3655177,9.3100758 C32.7557993,9.13000644 33.149798,8.95286177 33.5448859,8.78073057 L34.7289754,3.72161287 C34.8474547,3.20968898 35.2250429,2.79525238 35.7244307,2.62730138 C36.2238126,2.45934518 36.773685,2.56034592 37.1784041,2.89629732 L41.1790756,6.21165396 C41.5988401,6.10975941 42.0202228,6.01264668 42.4399942,5.92026361 L44.58543,1.19364001 C44.803535,0.712938382 45.2544302,0.37941975 45.7766611,0.314104543 C46.2998533,0.245288291 46.8191545,0.453825537 47.1509382,0.863083911 L50.4188879,4.88394728 C50.8560344,4.86526155 51.2913991,4.85375374 51.7266538,4.84524804 L54.7475372,0.635576071 C55.0541759,0.206774963 55.5612289,-0.0317428784 56.0875419,0.00340871562 C56.6119687,0.0391954863 57.0809365,0.345562078 57.327659,0.811024292 L59.7482112,5.3959908 C60.1795532,5.46096755 60.607862,5.53593991 61.0338187,5.61333291 L64.8231237,2.06946827 C65.2084739,1.70755234 65.7526572,1.57214469 66.2598975,1.71120989 C66.7686544,1.84889584 67.1700182,2.23664096 67.3195553,2.74434115 L68.8045005,7.72633292 C69.20838,7.87374922 69.6099537,8.02635451 70.0084782,8.18616933 L74.4239306,5.44289347 C74.8724491,5.16474026 75.4311403,5.13654292 75.9039589,5.37218913 C76.3748504,5.60526069 76.6920929,6.06732125 76.741519,6.59277297 L77.2235554,11.7671807 C77.591092,11.9893932 77.9579547,12.217162 78.3197962,12.450846 L83.1847866,10.6224645 C83.6768004,10.4357257 84.2321064,10.5199596 84.6482299,10.8425216 C85.0665837,11.165402 85.2859182,11.677715 85.2319985,12.2018526 L84.6963982,17.3616154 C85.0161096,17.6561401 85.3350947,17.9519613 85.6478214,18.2541326 L90.7655322,17.412938 C91.2842152,17.327597 91.8117711,17.5176182 92.1575083,17.9147856 C92.5038764,18.3106719 92.6198947,18.8595122 92.4644883,19.3626303 L90.9368001,24.3161542 C91.1937009,24.6668034 91.446052,25.0207199 91.6943966,25.3806189 L96.8742745,25.5540993 C97.4018101,25.5707922 97.881241,25.8587359 98.143517,26.3168476 C98.4045237,26.7743242 98.4117767,27.333416 98.1621349,27.7960887 L95.6903313,32.3640519 C95.8713874,32.7540052 96.0480811,33.1481496 96.2183062,33.5438673 L101.278837,34.727495 C101.791076,34.8469326 102.20521,35.2235557 102.373171,35.7229375 C102.541105,36.2222504 102.439042,36.7735323 102.102781,37.1772929 L98.7860222,41.1783949 C98.8898106,41.5975224 98.9873484,42.0187486 99.0787813,42.4388501 L103.808645,44.5847178 C104.287129,44.8024974 104.619559,45.2532941 104.687734,45.7745645 C104.754645,46.2983785 104.547604,46.8171805 104.137376,47.1492837 L100.115107,50.41766 C100.134727,50.8544902 100.146692,51.2896994 100.155205,51.7249634 L104.365376,54.7471929 C104.794177,55.053828 105.033558,55.5616432 104.996188,56.0876436 C104.960398,56.6120616 104.65475,57.0818393 104.189922,57.3272803 L99.6044691,59.7510223 C99.5379095,60.1807653 99.4634605,60.6088997 99.3857622,61.0370719 L102.930563,64.8245159 C103.291215,65.209232 103.426053,65.7531299 103.286995,66.2603752 C103.150271,66.7688044 102.758698,67.1714397 102.253854,67.3200127 L97.2727291,68.8031142 C97.1253422,69.2070129 96.9706609,69.6101793 96.812433,70.0102862 L99.5557311,74.4256926 C99.8329323,74.8745402 99.8600641,75.4331167 99.6260034,75.904336 C99.3916631,76.3777772 98.9299486,76.6943067 98.4044932,76.7437289 L93.2286794,77.2262222 C93.0061363,77.5927987 92.7800038,77.9586545 92.5472799,78.3201583 L94.3743073,83.1855733 C94.5556042,83.67729 94.4764951,84.2319284 94.1542473,84.6490077 C93.8342245,85.0663975 93.3186461,85.2868227 92.793544,85.2332294 L87.6323544,84.6981044 C87.3397352,85.0171646 87.0439161,85.3361429 86.7398302,85.6495166 L87.5819387,90.76535 C87.6676052,91.2849863 87.4787623,91.8115366 87.0819181,92.1582214 C86.6838169,92.5042802 86.1350306,92.6187396 85.6322333,92.4642906 L80.6814063,90.935697 C80.3298,91.1929132 79.9759304,91.4467814 79.6160329,91.6951204 L79.4425384,96.8749456 C79.4251807,97.4005773 79.1374482,97.8805317 78.6793244,98.1428087 C78.2221651,98.40477 77.66264,98.412122 77.1986964,98.1618804 L72.6325289,95.6910041 C72.2425709,95.8720499 71.8467323,96.0482638 71.4513356,96.2194323 L70.2677037,101.279925 C70.1482304,101.792151 69.7725835,102.205965 69.272247,102.374241 C68.7719148,102.542515 68.2215741,102.440138 67.8178177,102.103878 L63.8166825,98.7871427 C63.3972499,98.8900236 62.9776879,98.9880145 62.5575878,99.079441 L60.4112386,103.807895 C60.1937708,104.287334 59.742972,104.619754 59.2213829,104.686971 C58.6978781,104.75484 58.1781599,104.546455 57.84574,104.138457 L54.5786966,100.115762 C54.141877,100.135383 53.7051405,100.147407 53.2695534,100.154941 L50.2486743,104.364611 C49.9407696,104.792779 49.4347787,105.033062 48.9100342,104.996318 C48.3833928,104.960223 47.912911,104.653894 47.6680945,104.18779 L45.2480056,99.6041902 C44.8163528,99.5382586 44.3890736,99.4646007 43.9605729,99.3859454 L40.1744681,102.930255 C39.789756,103.290904 39.2463853,103.425568 38.7372507,103.287113 C38.2272028,103.14882 37.8245664,102.757269 37.6775817,102.254011 L36.1949138,97.2743037 C35.7884774,97.1256323 35.3878487,96.9722392 34.9877346,96.8140129 L30.5709148,99.5577456 C30.1233331,99.835577 29.5673424,99.8613094 29.0945351,99.6257182 C28.620785,99.3936133 28.3063975,98.9305855 28.2569684,98.4051313 L27.7731021,93.229825 C27.4033501,93.0072928 27.0401719,92.7782816 26.6796036,92.5452311 L21.8132342,94.374072 C21.3212204,94.5607965 20.766461,94.4764036 20.3484287,94.1544797 C19.9319849,93.8341405 19.7125309,93.318695 19.7673995,92.7942317 L20.3016313,87.6349156 C19.9803412,87.341994 19.6632611,87.045536 19.3502089,86.7424096 L14.2347779,87.5813064 C13.7141902,87.6672836 13.1866762,87.4787708 12.8418915,87.0812915 C12.4955338,86.6854076 12.3800005,86.1348772 12.5344547,85.6320834 L14.0644338,80.6808339 C13.807216,80.3292253 13.5533474,79.9753589 13.3050031,79.6154586 L8.12650494,79.4415165 C7.60086477,79.4241667 7.11900496,79.1370584 6.85862728,78.6783074 C6.59475633,78.2217912 6.58847606,77.6623804 6.84000469,77.1990701 L9.311808,72.631108 C9.12885855,72.2417891 8.95265627,71.8470101 8.77926162,71.451291 L3.71873361,70.2676788 C3.20871916,70.1485433 2.79235822,69.7716138 2.62439812,69.2722316 C2.45644406,68.7728543 2.55930611,68.220837 2.89430987,67.8164396 L6.09257814,63.9601354 Z M20.9007356,39 L22.7288091,39 L42.6384229,39 C43.1730651,39 45.1718244,39.2336227 46.9618274,40.3996642 C48.2376304,41.2331429 50.133807,42.8989059 50.133807,45.5972222 C50.133807,48.0961045 48.0512085,50.0030191 46.0347688,51.2685185 C47.6596617,52.535054 48.648571,53.261863 49.2660303,56.6942001 C49.3950274,57.2648423 50.3510383,57.7418358 51.3049607,57.75 L52.48552,57.75 L54.0852752,57.75 L54.0852752,45.0185185 L52.3092898,45.0149377 C52.1714157,45.0146597 52.0597938,44.9028126 52.0597938,44.7649382 L52.0597938,39.25 C52.0597938,39.1119288 52.1717226,39 52.3097938,39 L54.0852752,39 L73.9640626,39 C74.497877,39 76.4935416,39.2336227 78.280773,40.3996642 C79.5546007,41.2331429 81.4478414,42.8989059 81.4478414,45.5972222 C81.4478414,48.0961045 79.3684674,50.0030191 77.3551499,51.2685185 C78.9775269,52.535054 79.964905,53.261863 80.5814083,56.6942001 C80.7102057,57.2648423 81.6647364,57.8575765 82.6171818,57.8657407 L90.7867946,57.8522077 C91.2651423,54.5295321 91.332906,50.9499511 90.8861813,47.1017802 L84.6191392,44.1495457 C83.1925409,43.481537 82.577834,41.7863224 83.2471202,40.3603758 L86.4114408,33.61638 C80.8239319,23.5921432 71.5203798,16.8379013 60.412632,14.4728925 L53.5180883,20.7784523 C52.3553017,21.841018 50.5511342,21.762476 49.4879301,20.6041584 L44.190604,14.6669482 C31.9576146,17.5124307 22.9231418,25.5882927 18.4159793,34.8306709 L20.9007356,39 Z M20.4464072,45.0058941 L14.4153882,48.5344945 C14.106403,51.5641308 14.1954786,54.6527826 14.6672629,57.747365 L22.0261168,57.75 L22.7288091,57.75 L22.7288091,45.0185185 L20.4464072,45.0058941 Z M16.1345167,63.9852596 C16.2057426,64.2090514 16.2789363,64.4326859 16.3540919,64.6561425 C18.2000129,70.1445787 21.2189282,74.9235635 24.9604988,78.8631907 L32.3442977,78.0346383 C33.9094666,77.8561874 35.3211405,78.9777506 35.4979973,80.5413215 L36.2220403,86.9703664 C47.7987083,91.9060329 57.9833466,91.8754758 68.8676891,87.140867 L69.6226648,79.9983079 C69.7694856,78.4319553 71.1596383,77.2795551 72.7288661,77.4254061 L73.1618851,77.465849 L73.1210797,77.4216344 C77.6649649,77.8875688 79.8463955,78.0963086 81.0628131,78.2066471 C84.577782,74.2794289 87.5723215,69.5610427 89.3728766,63.9757442 L82.6171818,64 L75.3672711,64 C74.0322118,64 72.7474207,62.1255394 72.4396924,61.1920846 C72.1309174,60.3596418 71.6792686,57.7597475 71.473593,56.9604574 C70.816792,54.3615991 68.8238112,54.162037 68.3512285,54.162037 L63.0891966,54.162037 L63.0891966,57.8657407 L67.8834923,57.8657407 C68.0687573,57.8657407 68.2342945,57.9304229 68.2342945,58.0972222 L68.2342945,63.7685185 C68.2342945,63.9353179 68.0687573,64 67.8834923,64 L52.48552,64 L44.0438075,64 C42.7066779,64 41.4198943,62.1255394 41.1116888,61.1920846 C40.802435,60.3596418 40.3500858,57.7597475 40.1440913,56.9604574 C39.4862718,54.3615991 37.4902005,54.162037 37.0168849,54.162037 L31.746693,54.162037 L31.746693,57.8657407 L36.5484234,57.8657407 C36.7339757,57.8657407 36.8997695,57.9304229 36.8997695,58.0972222 L36.8997695,63.7685185 C36.8997695,63.9353179 36.7339757,64 36.5484234,64 L22.0261168,64 L16.1345166,63.9852596 Z M17.6894325,41.0355687 C17.6928997,40.6844237 17.6370221,40.3298901 17.5178931,39.9872848 C17.4493608,39.7913882 17.3619327,39.5986645 17.2516697,39.4133788 C16.3716853,37.929285 14.44918,37.4407435 12.9635003,38.3223156 C11.4778025,39.2038868 10.9872591,41.1245766 11.8669174,42.6077178 C12.7497509,44.090853 14.6678984,44.576288 16.156453,43.6937567 C16.1684057,43.6866754 16.180294,43.6795272 16.1921177,43.6723129 L17.6894371,41.0355606 Z M93.5823388,38.7800857 C93.3098551,38.0282471 92.7500588,37.3805069 91.9679853,37.0139425 C90.4016536,36.2836735 88.5398674,36.958114 87.8070492,38.5231793 C87.0723063,40.0857034 87.7465973,41.9452073 89.3126115,42.6777032 C90.8767378,43.4076566 92.7394618,42.7329044 93.4735605,41.1684589 C93.8409332,40.3872063 93.8548207,39.5319313 93.5823388,38.7800857 Z M76.0424923,81.0567129 C74.1928335,80.8714443 72.7529596,82.1935959 72.5934998,83.9116124 C72.4321516,85.6303008 73.6964795,87.1520717 75.417726,87.3115082 C77.1389666,87.4709395 78.7132147,85.9605695 78.8258871,84.4891194 C78.9385552,83.0176715 78.1313353,81.4335605 76.0424923,81.0567129 Z M54.1051504,11.4681969 C52.938934,10.1960037 50.957746,10.1107391 49.6836204,11.2775897 C48.4082412,12.4437874 48.3218473,14.419843 49.4893364,15.692672 C50.6549108,16.9629772 52.6340554,17.0484553 53.9104011,15.8819205 C54.8662259,15.0074943 55.1543038,13.6779401 54.746175,12.5306925 C54.6097833,12.1483833 54.3969407,11.7861713 54.1051504,11.4681969 Z M29.1117793,81.7420339 C27.3956222,81.9383803 26.1595797,83.487697 26.3540169,85.2012943 C26.5468654,86.9164907 28.0950752,88.1478567 29.8128333,87.9530898 C31.5327955,87.7554596 32.7666409,86.2094705 32.5737949,84.4942785 C32.5493614,84.279987 32.5031839,84.0721095 32.4386108,83.8747735 C31.9874597,82.4931533 30.614522,81.5707839 29.1117793,81.7420339 Z M63.1141646,48.8639545 L69.3802033,48.8634365 C70.7147393,48.8634365 72.3376396,48.3972271 72.3376396,47.0970209 C72.3376396,45.5310754 70.221746,45.1316894 69.8726732,45.1316894 L63.1141646,45.1316894 L63.1141646,48.8639545 Z M31.7716997,48.8639545 L38.0474554,48.8634365 C39.3840608,48.8634365 41.0094778,48.3972271 41.0094778,47.0970209 C41.0094778,45.5310754 38.890303,45.1316894 38.540689,45.1316894 L31.7716997,45.1316894 L31.7716997,48.8639545 Z" id="Combined-Shape" fill="#000000" fill-rule="nonzero"></path>
    </g>
</svg>